<svg width="340" viewBox="0 0 1229 127" fill="none" xmlns="http://www.w3.org/2000/svg"><g clip-path="url(#clip0_0_3)"><path d="M64.51 0C27.13 0 0 26.59 0 63.23C0 99.87 27.13 126.46 64.51 126.46C81.96 126.46 93.22 121.68 96.25 120.22L97.23 119.74V98.2L94.54 99.94C85.86 105.56 76.03 108.29 64.5 108.29C37.36 108.29 19.12 90.18 19.12 63.23C19.12 36.28 37.35 18.18 64.5 18.18C76.04 18.18 85.86 20.91 94.54 26.53L97.23 28.27V6.72L96.25 6.24C93.22 4.78 81.96 0 64.51 0Z" fill="currentColor"></path><path d="M188.75 43.6L189.16 41.53H169.17V49.59C163.74 44.36 154.74 39.93 143.92 39.93C120.05 39.93 104.01 57.32 104.01 83.2C104.01 109.08 120.05 126.47 143.92 126.47C154.7 126.47 163.71 121.97 169.17 116.67V124.87H189.16L188.75 122.8C187.05 114.1 186.23 106.32 186.23 99.02V67.4C186.23 60.1 187.06 52.32 188.75 43.62V43.6ZM146 110.36C131.02 110.36 121.71 99.95 121.71 83.19C121.71 66.43 131.02 55.86 146 55.86C160.98 55.86 169.17 64.99 169.17 79.67V86.54C169.17 101.23 160.29 110.35 146 110.35V110.36Z" fill="currentColor"></path><path d="M330.92 99.01V73.14C330.92 53.28 317.77 39.94 298.19 39.94C283.75 39.94 275.51 46.71 270.91 53.26C265.15 44.76 255.63 39.94 244.36 39.94C235.58 39.94 227.67 43.09 222.3 48.55V41.54H202.15L202.56 43.61C203.89 50.41 205.24 58.55 205.24 67.39V99.01C205.24 107.85 203.88 115.99 202.56 122.79L202.15 124.86H225.22L224.81 122.79C223.11 114.09 222.29 106.31 222.29 99.01V80.32C222.29 71.49 223.89 65.69 227.49 61.46C230.64 57.6 235.7 55.55 242.11 55.55C253.18 55.55 259.53 62.95 259.53 75.85V99.01C259.53 107.85 258.17 115.99 256.85 122.79L256.44 124.86H279.51L279.1 122.79C277.4 114.1 276.58 106.32 276.58 99.01V80.32C276.58 71.49 278.18 65.69 281.78 61.46C284.93 57.6 289.98 55.55 296.4 55.55C307.47 55.55 313.82 62.95 313.82 75.85V99.01C313.82 107.85 312.46 115.99 311.14 122.79L310.73 124.86H333.8L333.39 122.79C331.69 114.09 330.87 106.31 330.87 99.01H330.92Z" fill="currentColor"></path><path d="M388.52 39.93C377.67 39.93 368.77 44.31 363.43 49.51V27.45C363.43 18.61 364.79 10.47 366.11 3.67L366.52 1.6H343.29L343.7 3.67C345.03 10.47 346.38 18.61 346.38 27.45V99C346.38 107.84 345.02 115.98 343.7 122.78L343.29 124.85H363.44V116.73C368.81 122 377.72 126.45 388.53 126.45C412.4 126.45 428.44 109.06 428.44 83.18C428.44 57.3 412.4 39.91 388.53 39.91L388.52 39.93ZM386.44 55.87C401.42 55.87 410.73 66.34 410.73 83.2C410.73 100.06 401.42 110.37 386.44 110.37C372.24 110.37 363.43 101.24 363.43 86.56V79.69C363.43 65 372.25 55.88 386.44 55.88V55.87Z" fill="currentColor"></path><path d="M475.72 39.93C452.41 39.93 436.13 57.72 436.13 83.2C436.13 108.68 453.2 126.47 478.6 126.47C489.1 126.47 499.38 123.94 506.8 119.52L507.65 119.01V99.41L504.88 101.44C498.34 106.24 491.89 110.21 479.24 110.21C465.92 110.21 456.41 102.54 453.97 90.05H514.52V83.2C514.52 56.92 499.29 39.93 475.73 39.93H475.72ZM496.36 74.11H454.2C456.83 62.48 464.64 55.87 475.88 55.87C487.12 55.87 494.16 62.49 496.36 74.11Z" fill="currentColor"></path><path d="M589.8 47.65C587.25 45.89 584.54 45 581.76 45C574.63 45 568.95 50.7 564.39 55.27L563.89 55.77C558.66 61 553.96 66.56 549.62 72C549.72 71.08 549.8 70.2 549.88 69.33L549.96 68.48C550.01 67.91 550.05 67.37 550.07 66.9C550.6 60.36 551.43 50.91 552.56 44.43L552.92 42.39H531.64L532 44.43C532.58 47.73 533.04 50.69 533.39 53.39L535.78 89.65C531.92 92.68 515.25 106.54 517.66 118.17C518.71 123.26 521.84 126.17 526.23 126.17C529.66 126.17 532.22 123.92 534.48 121.94L535.02 121.47C545.92 111.99 546.96 95.69 547.05 92.11L565.19 71.69C568.03 68.55 571.57 64.64 574.92 64.64C576.46 64.64 577.32 64.91 577.9 65.56C578.97 66.78 579.52 69.57 577.85 73.74L576.57 76.92L593.01 72.76L593.33 71.9C593.58 71.22 593.86 70.57 594.12 69.96C594.51 69.03 594.86 68.23 595.05 67.49C597.76 57.53 596.34 52.14 589.8 47.63V47.65Z" fill="currentColor"></path><path d="M1109.98 124.98H1081.48V121.22C1085.8 121.22 1085.85 120.77 1085.85 116.4V101.45C1085.85 97.13 1085.8 96.63 1081.48 96.63V92.87H1109.48V102.45H1105.57C1105.57 97.93 1105.37 97.43 1098.85 97.43H1094.03V106.21H1096.64C1099.25 106.21 1099.4 105.71 1099.4 102.6H1103.36V114.14H1099.4C1099.4 111.23 1099.25 110.78 1096.64 110.78H1094.03V120.41H1099.35C1105.87 120.41 1106.07 119.81 1106.07 114.59H1109.98V124.98Z" fill="currentColor"></path><path d="M1072.87 125.63C1059.47 125.63 1069.26 110.98 1061.18 110.98H1057.52V116.4C1057.52 120.72 1057.57 121.22 1061.13 121.22V124.98H1044.97V121.22C1049.29 121.22 1049.34 120.77 1049.34 116.4V101.45C1049.34 97.13 1049.29 96.63 1044.97 96.63V92.87H1063.29C1071.32 92.87 1075.63 96.08 1075.63 101.45C1075.63 105.97 1072.37 108.02 1068.86 108.63C1075.48 110.94 1071.47 121.33 1074.48 121.33C1075.68 121.33 1075.89 119.52 1075.63 116.86H1079.59C1080.29 122.43 1078.39 125.64 1072.87 125.64V125.63ZM1057.51 106.61H1062.13C1064.84 106.61 1066.95 105.56 1066.95 101.69C1066.95 98.48 1064.84 97.42 1062.13 97.42H1057.51V106.6V106.61Z" fill="currentColor"></path><path d="M1005.86 124.98V121.22C1009.27 121.22 1009.77 120.87 1011.38 116.75L1017.55 101.09C1019.11 97.03 1019.51 96.62 1016.09 96.62V92.86H1027.68L1037.21 116.8C1038.82 120.81 1039.27 121.22 1042.73 121.22V124.98H1025.82V121.22C1030.54 121.22 1030.19 120.87 1028.63 116.75L1028.43 116.25H1017.14L1016.94 116.75C1015.38 120.81 1014.98 121.22 1019.75 121.22V124.98H1005.85H1005.86ZM1018.86 111.68H1026.69L1022.78 101.44L1018.87 111.68H1018.86Z" fill="currentColor"></path><path d="M989.59 125.83C979.65 125.83 973.18 119.01 973.18 109.12C973.18 99.23 979.95 92.01 988.74 92.01C995.66 92.01 998.27 95.92 999.48 95.92C999.83 95.92 999.98 95.67 999.98 94.97V92.86H1004.3V105.91H999.53C998.58 100.89 995.72 97.58 990.8 97.58C985.88 97.58 982.22 101.49 982.22 108.82C982.22 116.15 985.83 120.01 990.9 120.01C995.06 120.01 997.98 117.35 999.13 113.14H1004.55C1003.4 120.67 998.23 125.84 989.6 125.84L989.59 125.83Z" fill="currentColor"></path><path d="M934.37 124.98V121.22C938.69 121.22 938.74 120.77 938.74 116.4V101.45C938.74 97.13 938.69 96.63 934.37 96.63V92.87H951.28V96.63C946.96 96.63 946.91 97.08 946.91 101.45V106.72H958.5V101.45C958.5 97.13 958.4 96.63 954.13 96.63V92.87H970.99V96.63C966.72 96.63 966.62 97.08 966.62 101.45V116.4C966.62 120.72 966.72 121.22 970.99 121.22V124.98H954.13V121.22C958.4 121.22 958.5 120.77 958.5 116.4V111.28H946.91V116.4C946.91 120.72 946.96 121.22 951.28 121.22V124.98H934.37Z" fill="currentColor"></path><path d="M906.45 124.98V121.22C911.57 121.22 911.67 120.77 911.67 116.4V97.43H909.56C904.39 97.43 904.09 97.98 904.09 103.25H899.77V92.86H931.58V103.25H927.26C927.26 97.98 926.96 97.43 921.74 97.43H919.83V116.4C919.83 120.72 919.88 121.22 925.05 121.22V124.98H906.43H906.45Z" fill="currentColor"></path><path d="M899.07 124.98H872.58V121.22C876.9 121.22 876.95 120.77 876.95 116.4V101.45C876.95 97.13 876.9 96.63 872.58 96.63V92.87H889.49V96.63C885.17 96.63 885.12 97.08 885.12 101.45V120.42H888.43C894.4 120.42 894.6 119.82 894.6 113.9H899.07V124.99V124.98Z" fill="currentColor"></path><path d="M833.47 124.98V121.22C836.88 121.22 837.38 120.87 838.99 116.75L845.16 101.09C846.72 97.03 847.12 96.62 843.7 96.62V92.86H855.29L864.82 116.8C866.43 120.81 866.88 121.22 870.34 121.22V124.98H853.43V121.22C858.15 121.22 857.8 120.87 856.24 116.75L856.04 116.25H844.75L844.55 116.75C842.99 120.81 842.59 121.22 847.36 121.22V124.98H833.46H833.47ZM846.46 111.68H854.29L850.38 101.44L846.47 111.68H846.46Z" fill="currentColor"></path><path d="M830.8 124.98H802.3V121.22C806.62 121.22 806.67 120.77 806.67 116.4V101.45C806.67 97.13 806.62 96.63 802.3 96.63V92.87H830.3V102.45H826.39C826.39 97.93 826.19 97.43 819.67 97.43H814.85V106.21H817.46C820.07 106.21 820.22 105.71 820.22 102.6H824.18V114.14H820.22C820.22 111.23 820.07 110.78 817.46 110.78H814.85V120.41H820.17C826.69 120.41 826.89 119.81 826.89 114.59H830.8V124.98Z" fill="currentColor"></path><path d="M763.3 124.98V121.22C767.62 121.22 767.67 120.77 767.67 116.4V101.45C767.67 97.13 767.62 96.63 763.3 96.63V92.87H780.21V96.63C775.89 96.63 775.84 97.08 775.84 101.45V106.72H787.43V101.45C787.43 97.13 787.33 96.63 783.06 96.63V92.87H799.92V96.63C795.65 96.63 795.55 97.08 795.55 101.45V116.4C795.55 120.72 795.65 121.22 799.92 121.22V124.98H783.06V121.22C787.33 121.22 787.43 120.77 787.43 116.4V111.28H775.84V116.4C775.84 120.72 775.89 121.22 780.21 121.22V124.98H763.3Z" fill="currentColor"></path><path d="M744.5 125.63C731.1 125.63 740.89 110.98 732.81 110.98H729.15V116.4C729.15 120.72 729.2 121.22 732.76 121.22V124.98H716.6V121.22C720.92 121.22 720.97 120.77 720.97 116.4V101.45C720.97 97.13 720.92 96.63 716.6 96.63V92.87H734.92C742.95 92.87 747.26 96.08 747.26 101.45C747.26 105.97 744 108.02 740.49 108.63C747.11 110.94 743.1 121.33 746.11 121.33C747.31 121.33 747.52 119.52 747.26 116.86H751.22C751.92 122.43 750.02 125.64 744.5 125.64V125.63ZM729.14 106.61H733.76C736.47 106.61 738.58 105.56 738.58 101.69C738.58 98.48 736.47 97.42 733.76 97.42H729.14V106.6V106.61Z" fill="currentColor"></path><path d="M697.02 125.83C686.73 125.83 679.51 118.86 679.51 109.02C679.51 99.18 686.69 92.01 696.97 92.01C707.25 92.01 714.48 98.98 714.48 108.97C714.48 118.96 707.25 125.83 697.02 125.83ZM696.97 120.41C702.44 120.41 705.45 116.4 705.45 108.87C705.45 101.34 702.44 97.43 696.97 97.43C691.5 97.43 688.54 101.39 688.54 108.87C688.54 116.35 691.5 120.41 696.97 120.41Z" fill="currentColor"></path><path d="M648.43 124.98V121.22C652.75 121.22 652.8 120.77 652.8 116.4V101.45C652.8 97.13 652.75 96.63 648.43 96.63V92.87H676.43V102.45H672.52C672.52 97.93 672.32 97.43 665.8 97.43H660.98V107.16H663.69C666.3 107.16 666.45 106.61 666.45 103.5H670.36V115.09H666.45C666.45 112.13 666.3 111.68 663.69 111.68H660.98V116.4C660.98 120.72 661.03 121.22 666.2 121.22V124.98H648.44H648.43Z" fill="currentColor"></path><path d="M1228.96 74.8H1200.46V71.04C1204.78 71.04 1204.83 70.59 1204.83 66.22V51.27C1204.83 46.95 1204.78 46.45 1200.46 46.45V42.69H1228.46V52.27H1224.55C1224.55 47.75 1224.35 47.25 1217.83 47.25H1213.01V56.03H1215.62C1218.23 56.03 1218.38 55.53 1218.38 52.42H1222.34V63.96H1218.38C1218.38 61.05 1218.23 60.6 1215.62 60.6H1213.01V70.23H1218.33C1224.85 70.23 1225.05 69.63 1225.05 64.41H1228.96V74.8Z" fill="currentColor"></path><path d="M1191.84 75.45C1178.44 75.45 1188.23 60.8 1180.15 60.8H1176.49V66.22C1176.49 70.54 1176.54 71.04 1180.1 71.04V74.8H1163.94V71.04C1168.26 71.04 1168.31 70.59 1168.31 66.22V51.27C1168.31 46.95 1168.26 46.45 1163.94 46.45V42.69H1182.26C1190.29 42.69 1194.6 45.9 1194.6 51.27C1194.6 55.79 1191.34 57.84 1187.83 58.45C1194.45 60.76 1190.44 71.15 1193.45 71.15C1194.65 71.15 1194.86 69.34 1194.6 66.68H1198.56C1199.26 72.25 1197.36 75.46 1191.84 75.46V75.45ZM1176.49 56.43H1181.11C1183.82 56.43 1185.93 55.38 1185.93 51.51C1185.93 48.3 1183.82 47.24 1181.11 47.24H1176.49V56.42V56.43Z" fill="currentColor"></path><path d="M1124.84 74.8V71.04C1128.25 71.04 1128.75 70.69 1130.36 66.57L1136.53 50.91C1138.09 46.85 1138.49 46.44 1135.07 46.44V42.68H1146.66L1156.19 66.62C1157.8 70.63 1158.25 71.04 1161.71 71.04V74.8H1144.8V71.04C1149.52 71.04 1149.17 70.69 1147.61 66.57L1147.41 66.07H1136.12L1135.92 66.57C1134.36 70.63 1133.96 71.04 1138.73 71.04V74.8H1124.83H1124.84ZM1137.83 61.5H1145.66L1141.75 51.26L1137.84 61.5H1137.83Z" fill="currentColor"></path><path d="M1100.63 51.01C1099.33 46.9 1098.92 46.44 1095.76 46.44V42.68H1111.52V46.44C1107.15 46.44 1107.41 46.84 1108.51 51.06L1112.93 67.27L1118.2 51.01C1119.55 46.9 1119.91 46.44 1115.44 46.44V42.68H1129.29V46.44C1125.83 46.44 1125.43 46.84 1123.97 50.96L1115.79 74.8H1107.96L1104.1 62.31L1098.98 74.8H1091.15L1082.77 50.96C1081.36 46.85 1080.91 46.44 1077.45 46.44V42.68H1093.26V46.44C1089.25 46.44 1089.55 46.84 1090.95 50.96L1096.57 67.47L1101.84 54.93L1100.64 51.02L1100.63 51.01Z" fill="currentColor"></path><path d="M1049.69 74.8V71.04C1054.81 71.04 1054.91 70.59 1054.91 66.22V47.25H1052.8C1047.63 47.25 1047.33 47.8 1047.33 53.07H1043.01V42.68H1074.82V53.07H1070.5C1070.5 47.8 1070.2 47.25 1064.98 47.25H1063.07V66.22C1063.07 70.54 1063.12 71.04 1068.29 71.04V74.8H1049.67H1049.69Z" fill="currentColor"></path><path d="M1011.79 74.8V71.04C1016.11 71.04 1016.16 70.59 1016.16 66.22V51.27C1016.16 46.95 1016.11 46.45 1011.79 46.45V42.69H1039.79V52.27H1035.88C1035.88 47.75 1035.68 47.25 1029.16 47.25H1024.34V56.98H1027.05C1029.66 56.98 1029.81 56.43 1029.81 53.32H1033.72V64.91H1029.81C1029.81 61.95 1029.66 61.5 1027.05 61.5H1024.34V66.22C1024.34 70.54 1024.39 71.04 1029.56 71.04V74.8H1011.8H1011.79Z" fill="currentColor"></path><path d="M992.21 75.65C981.92 75.65 974.7 68.68 974.7 58.84C974.7 49 981.88 41.83 992.16 41.83C1002.44 41.83 1009.67 48.8 1009.67 58.79C1009.67 68.78 1002.44 75.65 992.21 75.65ZM992.16 70.23C997.63 70.23 1000.64 66.22 1000.64 58.69C1000.64 51.16 997.63 47.25 992.16 47.25C986.69 47.25 983.73 51.21 983.73 58.69C983.73 66.17 986.69 70.23 992.16 70.23Z" fill="currentColor"></path><path d="M960.32 75.45C953.65 75.45 951.04 71.84 949.88 71.84C949.53 71.84 949.38 72.09 949.38 72.74V74.8H945.01V63.96H949.38C950.48 66.82 954.4 70.48 959.06 70.48C961.67 70.48 963.07 69.38 963.07 67.47C963.07 60.65 944.85 63.76 944.85 51.71C944.85 45.39 949.82 42.03 956.39 42.03C962.96 42.03 964.92 45.44 966.02 45.44C966.37 45.44 966.52 45.19 966.52 44.44V42.68H970.84V53.92H966.42C965.57 50.31 962.1 47.05 957.79 47.05C955.03 47.05 953.32 48.2 953.32 50.06C953.32 55.88 971.59 53.17 971.59 65.57C971.59 71.49 967.78 75.46 960.3 75.46L960.32 75.45Z" fill="currentColor"></path><path d="M931.41 74.8H904.92V71.04C909.24 71.04 909.29 70.59 909.29 66.22V51.27C909.29 46.95 909.24 46.45 904.92 46.45V42.69H921.83V46.45C917.51 46.45 917.46 46.9 917.46 51.27V70.24H920.77C926.74 70.24 926.94 69.64 926.94 63.72H931.41V74.81V74.8Z" fill="currentColor"></path><path d="M865.81 74.8V71.04C869.22 71.04 869.72 70.69 871.33 66.57L877.5 50.91C879.06 46.85 879.46 46.44 876.04 46.44V42.68H887.63L897.16 66.62C898.77 70.63 899.22 71.04 902.68 71.04V74.8H885.77V71.04C890.49 71.04 890.14 70.69 888.58 66.57L888.38 66.07H877.09L876.89 66.57C875.33 70.63 874.93 71.04 879.7 71.04V74.8H865.8H865.81ZM878.8 61.5H886.63L882.72 51.26L878.81 61.5H878.8Z" fill="currentColor"></path><path d="M846.7 74.8V71.04C851.02 71.04 851.07 70.59 851.07 66.22V51.27C851.07 46.95 851.02 46.45 846.7 46.45V42.69H863.61V46.45C859.29 46.45 859.24 46.9 859.24 51.27V66.22C859.24 70.54 859.29 71.04 863.61 71.04V74.8H846.7Z" fill="currentColor"></path><path d="M828.42 75.65C818.48 75.65 812.01 68.83 812.01 58.94C812.01 49.05 818.78 41.83 827.57 41.83C834.49 41.83 837.1 45.74 838.31 45.74C838.66 45.74 838.81 45.49 838.81 44.79V42.68H843.13V55.73H838.36C837.41 50.71 834.55 47.4 829.63 47.4C824.71 47.4 821.05 51.31 821.05 58.64C821.05 65.97 824.66 69.83 829.73 69.83C833.89 69.83 836.81 67.17 837.96 62.96H843.38C842.23 70.49 837.06 75.66 828.43 75.66L828.42 75.65Z" fill="currentColor"></path><path d="M800.02 74.8L783.86 54.43V66.22C783.86 70.54 783.96 71.04 788.23 71.04V74.8H774.08V71.04C778.4 71.04 778.45 70.59 778.45 66.22V51.27C778.45 46.95 778.4 46.45 774.08 46.45V42.69H784.57L800.53 63.31V51.27C800.53 46.95 800.48 46.45 796.16 46.45V42.69H810.31V46.45C805.99 46.45 805.94 46.9 805.94 51.27V74.8H800.02Z" fill="currentColor"></path><path d="M734.97 74.8V71.04C738.38 71.04 738.88 70.69 740.49 66.57L746.66 50.91C748.22 46.85 748.62 46.44 745.2 46.44V42.68H756.79L766.32 66.62C767.93 70.63 768.38 71.04 771.84 71.04V74.8H754.93V71.04C759.65 71.04 759.3 70.69 757.74 66.57L757.54 66.07H746.25L746.05 66.57C744.49 70.63 744.09 71.04 748.86 71.04V74.8H734.96H734.97ZM747.97 61.5H755.8L751.89 51.26L747.98 61.5H747.97Z" fill="currentColor"></path><path d="M724.36 74.8L708.2 54.43V66.22C708.2 70.54 708.3 71.04 712.57 71.04V74.8H698.42V71.04C702.74 71.04 702.79 70.59 702.79 66.22V51.27C702.79 46.95 702.74 46.45 698.42 46.45V42.69H708.91L724.87 63.31V51.27C724.87 46.95 724.82 46.45 720.5 46.45V42.69H734.65V46.45C730.33 46.45 730.28 46.9 730.28 51.27V74.8H724.36Z" fill="currentColor"></path><path d="M679.21 74.8V71.04C683.53 71.04 683.58 70.59 683.58 66.22V51.27C683.58 46.95 683.53 46.45 679.21 46.45V42.69H696.12V46.45C691.8 46.45 691.75 46.9 691.75 51.27V66.22C691.75 70.54 691.8 71.04 696.12 71.04V74.8H679.21Z" fill="currentColor"></path><path d="M648.43 74.8V71.04C652.75 71.04 652.8 70.59 652.8 66.22V51.27C652.8 46.95 652.75 46.45 648.43 46.45V42.69H676.43V52.27H672.52C672.52 47.75 672.32 47.25 665.8 47.25H660.98V56.98H663.69C666.3 56.98 666.45 56.43 666.45 53.32H670.36V64.91H666.45C666.45 61.95 666.3 61.5 663.69 61.5H660.98V66.22C660.98 70.54 661.03 71.04 666.2 71.04V74.8H648.44H648.43Z" fill="currentColor"></path></g><defs><clipPath id="clip0_0_3"><rect width="1228.96" height="126.46" fill="white"></rect></clipPath></defs></svg>