<?xml version="1.0" encoding="utf-8"?>
<svg width="340" fill="none" xmlns="http://www.w3.org/2000/svg">
  <g clip-path="url(#clip0_0_3)">
    <path d="M64.51 0C27.13 0 0 26.59 0 63.23C0 99.87 27.13 126.46 64.51 126.46C81.96 126.46 93.22 121.68 96.25 120.22L97.23 119.74V98.2L94.54 99.94C85.86 105.56 76.03 108.29 64.5 108.29C37.36 108.29 19.12 90.18 19.12 63.23C19.12 36.28 37.35 18.18 64.5 18.18C76.04 18.18 85.86 20.91 94.54 26.53L97.23 28.27V6.72L96.25 6.24C93.22 4.78 81.96 0 64.51 0Z" fill="currentColor"/>
    <path d="M188.75 43.6L189.16 41.53H169.17V49.59C163.74 44.36 154.74 39.93 143.92 39.93C120.05 39.93 104.01 57.32 104.01 83.2C104.01 109.08 120.05 126.47 143.92 126.47C154.7 126.47 163.71 121.97 169.17 116.67V124.87H189.16L188.75 122.8C187.05 114.1 186.23 106.32 186.23 99.02V67.4C186.23 60.1 187.06 52.32 188.75 43.62V43.6ZM146 110.36C131.02 110.36 121.71 99.95 121.71 83.19C121.71 66.43 131.02 55.86 146 55.86C160.98 55.86 169.17 64.99 169.17 79.67V86.54C169.17 101.23 160.29 110.35 146 110.35V110.36Z" fill="currentColor"/>
    <path d="M330.92 99.01V73.14C330.92 53.28 317.77 39.94 298.19 39.94C283.75 39.94 275.51 46.71 270.91 53.26C265.15 44.76 255.63 39.94 244.36 39.94C235.58 39.94 227.67 43.09 222.3 48.55V41.54H202.15L202.56 43.61C203.89 50.41 205.24 58.55 205.24 67.39V99.01C205.24 107.85 203.88 115.99 202.56 122.79L202.15 124.86H225.22L224.81 122.79C223.11 114.09 222.29 106.31 222.29 99.01V80.32C222.29 71.49 223.89 65.69 227.49 61.46C230.64 57.6 235.7 55.55 242.11 55.55C253.18 55.55 259.53 62.95 259.53 75.85V99.01C259.53 107.85 258.17 115.99 256.85 122.79L256.44 124.86H279.51L279.1 122.79C277.4 114.1 276.58 106.32 276.58 99.01V80.32C276.58 71.49 278.18 65.69 281.78 61.46C284.93 57.6 289.98 55.55 296.4 55.55C307.47 55.55 313.82 62.95 313.82 75.85V99.01C313.82 107.85 312.46 115.99 311.14 122.79L310.73 124.86H333.8L333.39 122.79C331.69 114.09 330.87 106.31 330.87 99.01H330.92Z" fill="currentColor"/>
    <path d="M388.52 39.93C377.67 39.93 368.77 44.31 363.43 49.51V27.45C363.43 18.61 364.79 10.47 366.11 3.67L366.52 1.6H343.29L343.7 3.67C345.03 10.47 346.38 18.61 346.38 27.45V99C346.38 107.84 345.02 115.98 343.7 122.78L343.29 124.85H363.44V116.73C368.81 122 377.72 126.45 388.53 126.45C412.4 126.45 428.44 109.06 428.44 83.18C428.44 57.3 412.4 39.91 388.53 39.91L388.52 39.93ZM386.44 55.87C401.42 55.87 410.73 66.34 410.73 83.2C410.73 100.06 401.42 110.37 386.44 110.37C372.24 110.37 363.43 101.24 363.43 86.56V79.69C363.43 65 372.25 55.88 386.44 55.88V55.87Z" fill="currentColor"/>
    <path d="M475.72 39.93C452.41 39.93 436.13 57.72 436.13 83.2C436.13 108.68 453.2 126.47 478.6 126.47C489.1 126.47 499.38 123.94 506.8 119.52L507.65 119.01V99.41L504.88 101.44C498.34 106.24 491.89 110.21 479.24 110.21C465.92 110.21 456.41 102.54 453.97 90.05H514.52V83.2C514.52 56.92 499.29 39.93 475.73 39.93H475.72ZM496.36 74.11H454.2C456.83 62.48 464.64 55.87 475.88 55.87C487.12 55.87 494.16 62.49 496.36 74.11Z" fill="currentColor"/>
    <path d="M589.8 47.65C587.25 45.89 584.54 45 581.76 45C574.63 45 568.95 50.7 564.39 55.27L563.89 55.77C558.66 61 553.96 66.56 549.62 72C549.72 71.08 549.8 70.2 549.88 69.33L549.96 68.48C550.01 67.91 550.05 67.37 550.07 66.9C550.6 60.36 551.43 50.91 552.56 44.43L552.92 42.39H531.64L532 44.43C532.58 47.73 533.04 50.69 533.39 53.39L535.78 89.65C531.92 92.68 515.25 106.54 517.66 118.17C518.71 123.26 521.84 126.17 526.23 126.17C529.66 126.17 532.22 123.92 534.48 121.94L535.02 121.47C545.92 111.99 546.96 95.69 547.05 92.11L565.19 71.69C568.03 68.55 571.57 64.64 574.92 64.64C576.46 64.64 577.32 64.91 577.9 65.56C578.97 66.78 579.52 69.57 577.85 73.74L576.57 76.92L593.01 72.76L593.33 71.9C593.58 71.22 593.86 70.57 594.12 69.96C594.51 69.03 594.86 68.23 595.05 67.49C597.76 57.53 596.34 52.14 589.8 47.63V47.65Z" fill="currentColor"/>
  </g>
  <defs>
    <clipPath id="clip0_0_3">
      <rect width="1228.96" height="126.46" fill="white"/>
    </clipPath>
  </defs>
  <path d="M 472.319 247.936 L 443.819 247.936 L 443.819 244.176 C 448.139 244.176 448.189 243.726 448.189 239.356 L 448.189 224.406 C 448.189 220.086 448.139 219.586 443.819 219.586 L 443.819 215.826 L 471.819 215.826 L 471.819 225.406 L 467.909 225.406 C 467.909 220.886 467.709 220.386 461.189 220.386 L 456.369 220.386 L 456.369 229.166 L 458.979 229.166 C 461.589 229.166 461.739 228.666 461.739 225.556 L 465.699 225.556 L 465.699 237.096 L 461.739 237.096 C 461.739 234.186 461.589 233.736 458.979 233.736 L 456.369 233.736 L 456.369 243.366 L 461.689 243.366 C 468.209 243.366 468.409 242.766 468.409 237.546 L 472.319 237.546 L 472.319 247.936 Z" fill="currentColor" style="stroke-width: 1;"/>
  <path d="M 435.209 248.586 C 421.809 248.586 431.599 233.936 423.519 233.936 L 419.859 233.936 L 419.859 239.356 C 419.859 243.676 419.909 244.176 423.469 244.176 L 423.469 247.936 L 407.309 247.936 L 407.309 244.176 C 411.629 244.176 411.679 243.726 411.679 239.356 L 411.679 224.406 C 411.679 220.086 411.629 219.586 407.309 219.586 L 407.309 215.826 L 425.629 215.826 C 433.659 215.826 437.969 219.036 437.969 224.406 C 437.969 228.926 434.709 230.976 431.199 231.586 C 437.819 233.896 433.809 244.286 436.819 244.286 C 438.019 244.286 438.229 242.476 437.969 239.816 L 441.929 239.816 C 442.629 245.386 440.729 248.596 435.209 248.596 L 435.209 248.586 Z M 419.849 229.566 L 424.469 229.566 C 427.179 229.566 429.289 228.516 429.289 224.646 C 429.289 221.436 427.179 220.376 424.469 220.376 L 419.849 220.376 L 419.849 229.556 L 419.849 229.566 Z" fill="currentColor" style="stroke-width: 1;"/>
  <path d="M 368.199 247.936 L 368.199 244.176 C 371.609 244.176 372.109 243.826 373.719 239.706 L 379.889 224.046 C 381.449 219.986 381.849 219.576 378.429 219.576 L 378.429 215.816 L 390.019 215.816 L 399.549 239.756 C 401.159 243.766 401.609 244.176 405.069 244.176 L 405.069 247.936 L 388.159 247.936 L 388.159 244.176 C 392.879 244.176 392.529 243.826 390.969 239.706 L 390.769 239.206 L 379.479 239.206 L 379.279 239.706 C 377.719 243.766 377.319 244.176 382.089 244.176 L 382.089 247.936 L 368.189 247.936 L 368.199 247.936 Z M 381.199 234.636 L 389.029 234.636 L 385.119 224.396 L 381.209 234.636 L 381.199 234.636 Z" fill="currentColor" style="stroke-width: 1;"/>
  <path d="M 351.929 248.786 C 341.989 248.786 335.519 241.966 335.519 232.076 C 335.519 222.186 342.289 214.966 351.079 214.966 C 357.999 214.966 360.609 218.876 361.819 218.876 C 362.169 218.876 362.319 218.626 362.319 217.926 L 362.319 215.816 L 366.639 215.816 L 366.639 228.866 L 361.869 228.866 C 360.919 223.846 358.059 220.536 353.139 220.536 C 348.219 220.536 344.559 224.446 344.559 231.776 C 344.559 239.106 348.169 242.966 353.239 242.966 C 357.399 242.966 360.319 240.306 361.469 236.096 L 366.889 236.096 C 365.739 243.626 360.569 248.796 351.939 248.796 L 351.929 248.786 Z" fill="currentColor" style="stroke-width: 1;"/>
  <path d="M 296.709 247.936 L 296.709 244.176 C 301.029 244.176 301.079 243.726 301.079 239.356 L 301.079 224.406 C 301.079 220.086 301.029 219.586 296.709 219.586 L 296.709 215.826 L 313.619 215.826 L 313.619 219.586 C 309.299 219.586 309.249 220.036 309.249 224.406 L 309.249 229.676 L 320.839 229.676 L 320.839 224.406 C 320.839 220.086 320.739 219.586 316.469 219.586 L 316.469 215.826 L 333.329 215.826 L 333.329 219.586 C 329.059 219.586 328.959 220.036 328.959 224.406 L 328.959 239.356 C 328.959 243.676 329.059 244.176 333.329 244.176 L 333.329 247.936 L 316.469 247.936 L 316.469 244.176 C 320.739 244.176 320.839 243.726 320.839 239.356 L 320.839 234.236 L 309.249 234.236 L 309.249 239.356 C 309.249 243.676 309.299 244.176 313.619 244.176 L 313.619 247.936 L 296.709 247.936 Z" fill="currentColor" style="stroke-width: 1;"/>
  <path d="M 268.789 247.936 L 268.789 244.176 C 273.909 244.176 274.009 243.726 274.009 239.356 L 274.009 220.386 L 271.899 220.386 C 266.729 220.386 266.429 220.936 266.429 226.206 L 262.109 226.206 L 262.109 215.816 L 293.919 215.816 L 293.919 226.206 L 289.599 226.206 C 289.599 220.936 289.299 220.386 284.079 220.386 L 282.169 220.386 L 282.169 239.356 C 282.169 243.676 282.219 244.176 287.389 244.176 L 287.389 247.936 L 268.769 247.936 L 268.789 247.936 Z" fill="currentColor" style="stroke-width: 1;"/>
  <path d="M 261.409 247.936 L 234.919 247.936 L 234.919 244.176 C 239.239 244.176 239.289 243.726 239.289 239.356 L 239.289 224.406 C 239.289 220.086 239.239 219.586 234.919 219.586 L 234.919 215.826 L 251.829 215.826 L 251.829 219.586 C 247.509 219.586 247.459 220.036 247.459 224.406 L 247.459 243.376 L 250.769 243.376 C 256.739 243.376 256.939 242.776 256.939 236.856 L 261.409 236.856 L 261.409 247.946 L 261.409 247.936 Z" fill="currentColor" style="stroke-width: 1;"/>
  <path d="M 195.809 247.936 L 195.809 244.176 C 199.219 244.176 199.719 243.826 201.329 239.706 L 207.499 224.046 C 209.059 219.986 209.459 219.576 206.039 219.576 L 206.039 215.816 L 217.629 215.816 L 227.159 239.756 C 228.769 243.766 229.219 244.176 232.679 244.176 L 232.679 247.936 L 215.769 247.936 L 215.769 244.176 C 220.489 244.176 220.139 243.826 218.579 239.706 L 218.379 239.206 L 207.089 239.206 L 206.889 239.706 C 205.329 243.766 204.929 244.176 209.699 244.176 L 209.699 247.936 L 195.799 247.936 L 195.809 247.936 Z M 208.799 234.636 L 216.629 234.636 L 212.719 224.396 L 208.809 234.636 L 208.799 234.636 Z" fill="currentColor" style="stroke-width: 1;"/>
  <path d="M 193.139 247.936 L 164.639 247.936 L 164.639 244.176 C 168.959 244.176 169.009 243.726 169.009 239.356 L 169.009 224.406 C 169.009 220.086 168.959 219.586 164.639 219.586 L 164.639 215.826 L 192.639 215.826 L 192.639 225.406 L 188.729 225.406 C 188.729 220.886 188.529 220.386 182.009 220.386 L 177.189 220.386 L 177.189 229.166 L 179.799 229.166 C 182.409 229.166 182.559 228.666 182.559 225.556 L 186.519 225.556 L 186.519 237.096 L 182.559 237.096 C 182.559 234.186 182.409 233.736 179.799 233.736 L 177.189 233.736 L 177.189 243.366 L 182.509 243.366 C 189.029 243.366 189.229 242.766 189.229 237.546 L 193.139 237.546 L 193.139 247.936 Z" fill="currentColor" style="stroke-width: 1;"/>
  <path d="M 125.639 247.936 L 125.639 244.176 C 129.959 244.176 130.009 243.726 130.009 239.356 L 130.009 224.406 C 130.009 220.086 129.959 219.586 125.639 219.586 L 125.639 215.826 L 142.549 215.826 L 142.549 219.586 C 138.229 219.586 138.179 220.036 138.179 224.406 L 138.179 229.676 L 149.769 229.676 L 149.769 224.406 C 149.769 220.086 149.669 219.586 145.399 219.586 L 145.399 215.826 L 162.259 215.826 L 162.259 219.586 C 157.989 219.586 157.889 220.036 157.889 224.406 L 157.889 239.356 C 157.889 243.676 157.989 244.176 162.259 244.176 L 162.259 247.936 L 145.399 247.936 L 145.399 244.176 C 149.669 244.176 149.769 243.726 149.769 239.356 L 149.769 234.236 L 138.179 234.236 L 138.179 239.356 C 138.179 243.676 138.229 244.176 142.549 244.176 L 142.549 247.936 L 125.639 247.936 Z" fill="currentColor" style="stroke-width: 1;"/>
  <path d="M 106.839 248.586 C 93.439 248.586 103.229 233.936 95.149 233.936 L 91.489 233.936 L 91.489 239.356 C 91.489 243.676 91.539 244.176 95.099 244.176 L 95.099 247.936 L 78.94 247.936 L 78.94 244.176 C 83.26 244.176 83.31 243.726 83.31 239.356 L 83.31 224.406 C 83.31 220.086 83.26 219.586 78.94 219.586 L 78.94 215.826 L 97.259 215.826 C 105.289 215.826 109.599 219.036 109.599 224.406 C 109.599 228.926 106.339 230.976 102.829 231.586 C 109.449 233.896 105.439 244.286 108.449 244.286 C 109.649 244.286 109.859 242.476 109.599 239.816 L 113.559 239.816 C 114.259 245.386 112.359 248.596 106.839 248.596 L 106.839 248.586 Z M 91.479 229.566 L 96.099 229.566 C 98.809 229.566 100.919 228.516 100.919 224.646 C 100.919 221.436 98.809 220.376 96.099 220.376 L 91.479 220.376 L 91.479 229.556 L 91.479 229.566 Z" fill="currentColor" style="stroke-width: 1;"/>
  <path d="M 59.36 248.786 C 49.07 248.786 41.85 241.816 41.85 231.976 C 41.85 222.136 49.03 214.966 59.31 214.966 C 69.59 214.966 76.82 221.936 76.82 231.926 C 76.82 241.916 69.59 248.786 59.36 248.786 Z M 59.31 243.366 C 64.78 243.366 67.79 239.356 67.79 231.826 C 67.79 224.296 64.78 220.386 59.31 220.386 C 53.84 220.386 50.88 224.346 50.88 231.826 C 50.88 239.306 53.84 243.366 59.31 243.366 Z" fill="currentColor" style="stroke-width: 1;"/>
  <path d="M 10.77 247.936 L 10.77 244.176 C 15.09 244.176 15.14 243.726 15.14 239.356 L 15.14 224.406 C 15.14 220.086 15.09 219.586 10.77 219.586 L 10.77 215.826 L 38.77 215.826 L 38.77 225.406 L 34.86 225.406 C 34.86 220.886 34.66 220.386 28.14 220.386 L 23.32 220.386 L 23.32 230.116 L 26.03 230.116 C 28.64 230.116 28.79 229.566 28.79 226.456 L 32.7 226.456 L 32.7 238.046 L 28.79 238.046 C 28.79 235.086 28.64 234.636 26.03 234.636 L 23.32 234.636 L 23.32 239.356 C 23.32 243.676 23.37 244.176 28.54 244.176 L 28.54 247.936 L 10.78 247.936 L 10.77 247.936 Z" fill="currentColor" style="stroke-width: 1;"/>
  <path d="M 591.299 197.756 L 562.799 197.756 L 562.799 193.996 C 567.119 193.996 567.169 193.546 567.169 189.176 L 567.169 174.226 C 567.169 169.906 567.119 169.406 562.799 169.406 L 562.799 165.646 L 590.799 165.646 L 590.799 175.226 L 586.889 175.226 C 586.889 170.706 586.689 170.206 580.169 170.206 L 575.349 170.206 L 575.349 178.986 L 577.959 178.986 C 580.569 178.986 580.719 178.486 580.719 175.376 L 584.679 175.376 L 584.679 186.916 L 580.719 186.916 C 580.719 184.006 580.569 183.556 577.959 183.556 L 575.349 183.556 L 575.349 193.186 L 580.669 193.186 C 587.189 193.186 587.389 192.586 587.389 187.366 L 591.299 187.366 L 591.299 197.756 Z" fill="currentColor" style="stroke-width: 1;"/>
  <path d="M 554.179 198.406 C 540.779 198.406 550.569 183.756 542.489 183.756 L 538.829 183.756 L 538.829 189.176 C 538.829 193.496 538.879 193.996 542.439 193.996 L 542.439 197.756 L 526.279 197.756 L 526.279 193.996 C 530.599 193.996 530.649 193.546 530.649 189.176 L 530.649 174.226 C 530.649 169.906 530.599 169.406 526.279 169.406 L 526.279 165.646 L 544.599 165.646 C 552.629 165.646 556.939 168.856 556.939 174.226 C 556.939 178.746 553.679 180.796 550.169 181.406 C 556.789 183.716 552.779 194.106 555.789 194.106 C 556.989 194.106 557.199 192.296 556.939 189.636 L 560.899 189.636 C 561.599 195.206 559.699 198.416 554.179 198.416 L 554.179 198.406 Z M 538.829 179.386 L 543.449 179.386 C 546.159 179.386 548.269 178.336 548.269 174.466 C 548.269 171.256 546.159 170.196 543.449 170.196 L 538.829 170.196 L 538.829 179.376 L 538.829 179.386 Z" fill="currentColor" style="stroke-width: 1;"/>
  <path d="M 487.179 197.756 L 487.179 193.996 C 490.589 193.996 491.089 193.646 492.699 189.526 L 498.869 173.866 C 500.429 169.806 500.829 169.396 497.409 169.396 L 497.409 165.636 L 508.999 165.636 L 518.529 189.576 C 520.139 193.586 520.589 193.996 524.049 193.996 L 524.049 197.756 L 507.139 197.756 L 507.139 193.996 C 511.859 193.996 511.509 193.646 509.949 189.526 L 509.749 189.026 L 498.459 189.026 L 498.259 189.526 C 496.699 193.586 496.299 193.996 501.069 193.996 L 501.069 197.756 L 487.169 197.756 L 487.179 197.756 Z M 500.169 184.456 L 507.999 184.456 L 504.089 174.216 L 500.179 184.456 L 500.169 184.456 Z" fill="currentColor" style="stroke-width: 1;"/>
  <path d="M 462.969 173.966 C 461.669 169.856 461.259 169.396 458.099 169.396 L 458.099 165.636 L 473.859 165.636 L 473.859 169.396 C 469.489 169.396 469.749 169.796 470.849 174.016 L 475.269 190.226 L 480.539 173.966 C 481.889 169.856 482.249 169.396 477.779 169.396 L 477.779 165.636 L 491.629 165.636 L 491.629 169.396 C 488.169 169.396 487.769 169.796 486.309 173.916 L 478.129 197.756 L 470.299 197.756 L 466.439 185.266 L 461.319 197.756 L 453.489 197.756 L 445.109 173.916 C 443.699 169.806 443.249 169.396 439.789 169.396 L 439.789 165.636 L 455.599 165.636 L 455.599 169.396 C 451.589 169.396 451.889 169.796 453.289 173.916 L 458.909 190.426 L 464.179 177.886 L 462.979 173.976 L 462.969 173.966 Z" fill="currentColor" style="stroke-width: 1;"/>
  <path d="M 412.029 197.756 L 412.029 193.996 C 417.149 193.996 417.249 193.546 417.249 189.176 L 417.249 170.206 L 415.139 170.206 C 409.969 170.206 409.669 170.756 409.669 176.026 L 405.349 176.026 L 405.349 165.636 L 437.159 165.636 L 437.159 176.026 L 432.839 176.026 C 432.839 170.756 432.539 170.206 427.319 170.206 L 425.409 170.206 L 425.409 189.176 C 425.409 193.496 425.459 193.996 430.629 193.996 L 430.629 197.756 L 412.009 197.756 L 412.029 197.756 Z" fill="currentColor" style="stroke-width: 1;"/>
  <path d="M 374.129 197.756 L 374.129 193.996 C 378.449 193.996 378.499 193.546 378.499 189.176 L 378.499 174.226 C 378.499 169.906 378.449 169.406 374.129 169.406 L 374.129 165.646 L 402.129 165.646 L 402.129 175.226 L 398.219 175.226 C 398.219 170.706 398.019 170.206 391.499 170.206 L 386.679 170.206 L 386.679 179.936 L 389.389 179.936 C 391.999 179.936 392.149 179.386 392.149 176.276 L 396.059 176.276 L 396.059 187.866 L 392.149 187.866 C 392.149 184.906 391.999 184.456 389.389 184.456 L 386.679 184.456 L 386.679 189.176 C 386.679 193.496 386.729 193.996 391.899 193.996 L 391.899 197.756 L 374.139 197.756 L 374.129 197.756 Z" fill="currentColor" style="stroke-width: 1;"/>
  <path d="M 354.549 198.606 C 344.259 198.606 337.039 191.636 337.039 181.796 C 337.039 171.956 344.219 164.786 354.499 164.786 C 364.779 164.786 372.009 171.756 372.009 181.746 C 372.009 191.736 364.779 198.606 354.549 198.606 Z M 354.499 193.186 C 359.969 193.186 362.979 189.176 362.979 181.646 C 362.979 174.116 359.969 170.206 354.499 170.206 C 349.029 170.206 346.069 174.166 346.069 181.646 C 346.069 189.126 349.029 193.186 354.499 193.186 Z" fill="currentColor" style="stroke-width: 1;"/>
  <path d="M 322.659 198.406 C 315.989 198.406 313.379 194.796 312.219 194.796 C 311.869 194.796 311.719 195.046 311.719 195.696 L 311.719 197.756 L 307.349 197.756 L 307.349 186.916 L 311.719 186.916 C 312.819 189.776 316.739 193.436 321.399 193.436 C 324.009 193.436 325.409 192.336 325.409 190.426 C 325.409 183.606 307.189 186.716 307.189 174.666 C 307.189 168.346 312.159 164.986 318.729 164.986 C 325.299 164.986 327.259 168.396 328.359 168.396 C 328.709 168.396 328.859 168.146 328.859 167.396 L 328.859 165.636 L 333.179 165.636 L 333.179 176.876 L 328.759 176.876 C 327.909 173.266 324.439 170.006 320.129 170.006 C 317.369 170.006 315.659 171.156 315.659 173.016 C 315.659 178.836 333.929 176.126 333.929 188.526 C 333.929 194.446 330.119 198.416 322.639 198.416 L 322.659 198.406 Z" fill="currentColor" style="stroke-width: 1;"/>
  <path d="M 293.749 197.756 L 267.259 197.756 L 267.259 193.996 C 271.579 193.996 271.629 193.546 271.629 189.176 L 271.629 174.226 C 271.629 169.906 271.579 169.406 267.259 169.406 L 267.259 165.646 L 284.169 165.646 L 284.169 169.406 C 279.849 169.406 279.799 169.856 279.799 174.226 L 279.799 193.196 L 283.109 193.196 C 289.079 193.196 289.279 192.596 289.279 186.676 L 293.749 186.676 L 293.749 197.766 L 293.749 197.756 Z" fill="currentColor" style="stroke-width: 1;"/>
  <path d="M 228.149 197.756 L 228.149 193.996 C 231.559 193.996 232.059 193.646 233.669 189.526 L 239.839 173.866 C 241.399 169.806 241.799 169.396 238.379 169.396 L 238.379 165.636 L 249.969 165.636 L 259.499 189.576 C 261.109 193.586 261.559 193.996 265.019 193.996 L 265.019 197.756 L 248.109 197.756 L 248.109 193.996 C 252.829 193.996 252.479 193.646 250.919 189.526 L 250.719 189.026 L 239.429 189.026 L 239.229 189.526 C 237.669 193.586 237.269 193.996 242.039 193.996 L 242.039 197.756 L 228.139 197.756 L 228.149 197.756 Z M 241.139 184.456 L 248.969 184.456 L 245.059 174.216 L 241.149 184.456 L 241.139 184.456 Z" fill="currentColor" style="stroke-width: 1;"/>
  <path d="M 209.039 197.756 L 209.039 193.996 C 213.359 193.996 213.409 193.546 213.409 189.176 L 213.409 174.226 C 213.409 169.906 213.359 169.406 209.039 169.406 L 209.039 165.646 L 225.949 165.646 L 225.949 169.406 C 221.629 169.406 221.579 169.856 221.579 174.226 L 221.579 189.176 C 221.579 193.496 221.629 193.996 225.949 193.996 L 225.949 197.756 L 209.039 197.756 Z" fill="currentColor" style="stroke-width: 1;"/>
  <path d="M 190.759 198.606 C 180.819 198.606 174.349 191.786 174.349 181.896 C 174.349 172.006 181.119 164.786 189.909 164.786 C 196.829 164.786 199.439 168.696 200.649 168.696 C 200.999 168.696 201.149 168.446 201.149 167.746 L 201.149 165.636 L 205.469 165.636 L 205.469 178.686 L 200.699 178.686 C 199.749 173.666 196.889 170.356 191.969 170.356 C 187.049 170.356 183.389 174.266 183.389 181.596 C 183.389 188.926 186.999 192.786 192.069 192.786 C 196.229 192.786 199.149 190.126 200.299 185.916 L 205.719 185.916 C 204.569 193.446 199.399 198.616 190.769 198.616 L 190.759 198.606 Z" fill="currentColor" style="stroke-width: 1;"/>
  <path d="M 162.359 197.756 L 146.199 177.386 L 146.199 189.176 C 146.199 193.496 146.299 193.996 150.569 193.996 L 150.569 197.756 L 136.419 197.756 L 136.419 193.996 C 140.739 193.996 140.789 193.546 140.789 189.176 L 140.789 174.226 C 140.789 169.906 140.739 169.406 136.419 169.406 L 136.419 165.646 L 146.909 165.646 L 162.869 186.266 L 162.869 174.226 C 162.869 169.906 162.819 169.406 158.499 169.406 L 158.499 165.646 L 172.649 165.646 L 172.649 169.406 C 168.329 169.406 168.279 169.856 168.279 174.226 L 168.279 197.756 L 162.359 197.756 Z" fill="currentColor" style="stroke-width: 1;"/>
  <path d="M 97.309 197.756 L 97.309 193.996 C 100.719 193.996 101.219 193.646 102.829 189.526 L 108.999 173.866 C 110.559 169.806 110.959 169.396 107.539 169.396 L 107.539 165.636 L 119.129 165.636 L 128.659 189.576 C 130.269 193.586 130.719 193.996 134.179 193.996 L 134.179 197.756 L 117.269 197.756 L 117.269 193.996 C 121.989 193.996 121.639 193.646 120.079 189.526 L 119.879 189.026 L 108.589 189.026 L 108.389 189.526 C 106.829 193.586 106.429 193.996 111.199 193.996 L 111.199 197.756 L 97.299 197.756 L 97.309 197.756 Z M 110.309 184.456 L 118.139 184.456 L 114.229 174.216 L 110.319 184.456 L 110.309 184.456 Z" fill="currentColor" style="stroke-width: 1;"/>
  <path d="M 86.699 197.756 L 70.54 177.386 L 70.54 189.176 C 70.54 193.496 70.64 193.996 74.91 193.996 L 74.91 197.756 L 60.76 197.756 L 60.76 193.996 C 65.08 193.996 65.13 193.546 65.13 189.176 L 65.13 174.226 C 65.13 169.906 65.08 169.406 60.76 169.406 L 60.76 165.646 L 71.25 165.646 L 87.209 186.266 L 87.209 174.226 C 87.209 169.906 87.159 169.406 82.84 169.406 L 82.84 165.646 L 96.989 165.646 L 96.989 169.406 C 92.669 169.406 92.619 169.856 92.619 174.226 L 92.619 197.756 L 86.699 197.756 Z" fill="currentColor" style="stroke-width: 1;"/>
  <path d="M 41.55 197.756 L 41.55 193.996 C 45.87 193.996 45.92 193.546 45.92 189.176 L 45.92 174.226 C 45.92 169.906 45.87 169.406 41.55 169.406 L 41.55 165.646 L 58.46 165.646 L 58.46 169.406 C 54.14 169.406 54.09 169.856 54.09 174.226 L 54.09 189.176 C 54.09 193.496 54.14 193.996 58.46 193.996 L 58.46 197.756 L 41.55 197.756 Z" fill="currentColor" style="stroke-width: 1;"/>
  <path d="M 10.77 197.756 L 10.77 193.996 C 15.09 193.996 15.14 193.546 15.14 189.176 L 15.14 174.226 C 15.14 169.906 15.09 169.406 10.77 169.406 L 10.77 165.646 L 38.77 165.646 L 38.77 175.226 L 34.86 175.226 C 34.86 170.706 34.66 170.206 28.14 170.206 L 23.32 170.206 L 23.32 179.936 L 26.03 179.936 C 28.64 179.936 28.79 179.386 28.79 176.276 L 32.7 176.276 L 32.7 187.866 L 28.79 187.866 C 28.79 184.906 28.64 184.456 26.03 184.456 L 23.32 184.456 L 23.32 189.176 C 23.32 193.496 23.37 193.996 28.54 193.996 L 28.54 197.756 L 10.78 197.756 L 10.77 197.756 Z" fill="currentColor" style="stroke-width: 1;"/>
</svg>