<?xml version="1.0" encoding="utf-8"?>
<svg width="340" fill="none" xmlns="http://www.w3.org/2000/svg" viewBox="-170.251 -16.521 629.541 287.952">
  <g clip-path="url(#clip0_0_3)" transform="matrix(1, 0, 0, 1, -157.000816, 0)">
    <path d="M64.51 0C27.13 0 0 26.59 0 63.23C0 99.87 27.13 126.46 64.51 126.46C81.96 126.46 93.22 121.68 96.25 120.22L97.23 119.74V98.2L94.54 99.94C85.86 105.56 76.03 108.29 64.5 108.29C37.36 108.29 19.12 90.18 19.12 63.23C19.12 36.28 37.35 18.18 64.5 18.18C76.04 18.18 85.86 20.91 94.54 26.53L97.23 28.27V6.72L96.25 6.24C93.22 4.78 81.96 0 64.51 0Z" fill="currentColor"/>
    <path d="M188.75 43.6L189.16 41.53H169.17V49.59C163.74 44.36 154.74 39.93 143.92 39.93C120.05 39.93 104.01 57.32 104.01 83.2C104.01 109.08 120.05 126.47 143.92 126.47C154.7 126.47 163.71 121.97 169.17 116.67V124.87H189.16L188.75 122.8C187.05 114.1 186.23 106.32 186.23 99.02V67.4C186.23 60.1 187.06 52.32 188.75 43.62V43.6ZM146 110.36C131.02 110.36 121.71 99.95 121.71 83.19C121.71 66.43 131.02 55.86 146 55.86C160.98 55.86 169.17 64.99 169.17 79.67V86.54C169.17 101.23 160.29 110.35 146 110.35V110.36Z" fill="currentColor"/>
    <path d="M330.92 99.01V73.14C330.92 53.28 317.77 39.94 298.19 39.94C283.75 39.94 275.51 46.71 270.91 53.26C265.15 44.76 255.63 39.94 244.36 39.94C235.58 39.94 227.67 43.09 222.3 48.55V41.54H202.15L202.56 43.61C203.89 50.41 205.24 58.55 205.24 67.39V99.01C205.24 107.85 203.88 115.99 202.56 122.79L202.15 124.86H225.22L224.81 122.79C223.11 114.09 222.29 106.31 222.29 99.01V80.32C222.29 71.49 223.89 65.69 227.49 61.46C230.64 57.6 235.7 55.55 242.11 55.55C253.18 55.55 259.53 62.95 259.53 75.85V99.01C259.53 107.85 258.17 115.99 256.85 122.79L256.44 124.86H279.51L279.1 122.79C277.4 114.1 276.58 106.32 276.58 99.01V80.32C276.58 71.49 278.18 65.69 281.78 61.46C284.93 57.6 289.98 55.55 296.4 55.55C307.47 55.55 313.82 62.95 313.82 75.85V99.01C313.82 107.85 312.46 115.99 311.14 122.79L310.73 124.86H333.8L333.39 122.79C331.69 114.09 330.87 106.31 330.87 99.01H330.92Z" fill="currentColor"/>
    <path d="M388.52 39.93C377.67 39.93 368.77 44.31 363.43 49.51V27.45C363.43 18.61 364.79 10.47 366.11 3.67L366.52 1.6H343.29L343.7 3.67C345.03 10.47 346.38 18.61 346.38 27.45V99C346.38 107.84 345.02 115.98 343.7 122.78L343.29 124.85H363.44V116.73C368.81 122 377.72 126.45 388.53 126.45C412.4 126.45 428.44 109.06 428.44 83.18C428.44 57.3 412.4 39.91 388.53 39.91L388.52 39.93ZM386.44 55.87C401.42 55.87 410.73 66.34 410.73 83.2C410.73 100.06 401.42 110.37 386.44 110.37C372.24 110.37 363.43 101.24 363.43 86.56V79.69C363.43 65 372.25 55.88 386.44 55.88V55.87Z" fill="currentColor"/>
    <path d="M475.72 39.93C452.41 39.93 436.13 57.72 436.13 83.2C436.13 108.68 453.2 126.47 478.6 126.47C489.1 126.47 499.38 123.94 506.8 119.52L507.65 119.01V99.41L504.88 101.44C498.34 106.24 491.89 110.21 479.24 110.21C465.92 110.21 456.41 102.54 453.97 90.05H514.52V83.2C514.52 56.92 499.29 39.93 475.73 39.93H475.72ZM496.36 74.11H454.2C456.83 62.48 464.64 55.87 475.88 55.87C487.12 55.87 494.16 62.49 496.36 74.11Z" fill="currentColor"/>
    <path d="M589.8 47.65C587.25 45.89 584.54 45 581.76 45C574.63 45 568.95 50.7 564.39 55.27L563.89 55.77C558.66 61 553.96 66.56 549.62 72C549.72 71.08 549.8 70.2 549.88 69.33L549.96 68.48C550.01 67.91 550.05 67.37 550.07 66.9C550.6 60.36 551.43 50.91 552.56 44.43L552.92 42.39H531.64L532 44.43C532.58 47.73 533.04 50.69 533.39 53.39L535.78 89.65C531.92 92.68 515.25 106.54 517.66 118.17C518.71 123.26 521.84 126.17 526.23 126.17C529.66 126.17 532.22 123.92 534.48 121.94L535.02 121.47C545.92 111.99 546.96 95.69 547.05 92.11L565.19 71.69C568.03 68.55 571.57 64.64 574.92 64.64C576.46 64.64 577.32 64.91 577.9 65.56C578.97 66.78 579.52 69.57 577.85 73.74L576.57 76.92L593.01 72.76L593.33 71.9C593.58 71.22 593.86 70.57 594.12 69.96C594.51 69.03 594.86 68.23 595.05 67.49C597.76 57.53 596.34 52.14 589.8 47.63V47.65Z" fill="currentColor"/>
  </g>
  <defs>
    <clipPath id="clip0_0_3">
      <rect width="1228.96" height="126.46" fill="white"/>
    </clipPath>
  </defs>
  <path d="M 315.319 247.936 L 286.819 247.936 L 286.819 244.176 C 291.139 244.176 291.189 243.726 291.189 239.356 L 291.189 224.406 C 291.189 220.086 291.139 219.586 286.819 219.586 L 286.819 215.826 L 314.819 215.826 L 314.819 225.406 L 310.909 225.406 C 310.909 220.886 310.709 220.386 304.189 220.386 L 299.369 220.386 L 299.369 229.166 L 301.979 229.166 C 304.589 229.166 304.739 228.666 304.739 225.556 L 308.699 225.556 L 308.699 237.096 L 304.739 237.096 C 304.739 234.186 304.589 233.736 301.979 233.736 L 299.369 233.736 L 299.369 243.366 L 304.689 243.366 C 311.209 243.366 311.409 242.766 311.409 237.546 L 315.319 237.546 L 315.319 247.936 Z" fill="currentColor" style="stroke-width: 1;"/>
  <path d="M 278.209 248.586 C 264.809 248.586 274.599 233.936 266.519 233.936 L 262.859 233.936 L 262.859 239.356 C 262.859 243.676 262.909 244.176 266.469 244.176 L 266.469 247.936 L 250.309 247.936 L 250.309 244.176 C 254.629 244.176 254.679 243.726 254.679 239.356 L 254.679 224.406 C 254.679 220.086 254.629 219.586 250.309 219.586 L 250.309 215.826 L 268.629 215.826 C 276.659 215.826 280.969 219.036 280.969 224.406 C 280.969 228.926 277.709 230.976 274.199 231.586 C 280.819 233.896 276.809 244.286 279.819 244.286 C 281.019 244.286 281.229 242.476 280.969 239.816 L 284.929 239.816 C 285.629 245.386 283.729 248.596 278.209 248.596 L 278.209 248.586 Z M 262.849 229.566 L 267.469 229.566 C 270.179 229.566 272.289 228.516 272.289 224.646 C 272.289 221.436 270.179 220.376 267.469 220.376 L 262.849 220.376 L 262.849 229.556 L 262.849 229.566 Z" fill="currentColor" style="stroke-width: 1;"/>
  <path d="M 211.199 247.936 L 211.199 244.176 C 214.609 244.176 215.109 243.826 216.719 239.706 L 222.889 224.046 C 224.449 219.986 224.849 219.576 221.429 219.576 L 221.429 215.816 L 233.019 215.816 L 242.549 239.756 C 244.159 243.766 244.609 244.176 248.069 244.176 L 248.069 247.936 L 231.159 247.936 L 231.159 244.176 C 235.879 244.176 235.529 243.826 233.969 239.706 L 233.769 239.206 L 222.479 239.206 L 222.279 239.706 C 220.719 243.766 220.319 244.176 225.089 244.176 L 225.089 247.936 L 211.189 247.936 L 211.199 247.936 Z M 224.199 234.636 L 232.029 234.636 L 228.119 224.396 L 224.209 234.636 L 224.199 234.636 Z" fill="currentColor" style="stroke-width: 1;"/>
  <path d="M 194.929 248.786 C 184.989 248.786 178.519 241.966 178.519 232.076 C 178.519 222.186 185.289 214.966 194.079 214.966 C 200.999 214.966 203.609 218.876 204.819 218.876 C 205.169 218.876 205.319 218.626 205.319 217.926 L 205.319 215.816 L 209.639 215.816 L 209.639 228.866 L 204.869 228.866 C 203.919 223.846 201.059 220.536 196.139 220.536 C 191.219 220.536 187.559 224.446 187.559 231.776 C 187.559 239.106 191.169 242.966 196.239 242.966 C 200.399 242.966 203.319 240.306 204.469 236.096 L 209.889 236.096 C 208.739 243.626 203.569 248.796 194.939 248.796 L 194.929 248.786 Z" fill="currentColor" style="stroke-width: 1;"/>
  <path d="M 139.709 247.936 L 139.709 244.176 C 144.029 244.176 144.079 243.726 144.079 239.356 L 144.079 224.406 C 144.079 220.086 144.029 219.586 139.709 219.586 L 139.709 215.826 L 156.619 215.826 L 156.619 219.586 C 152.299 219.586 152.249 220.036 152.249 224.406 L 152.249 229.676 L 163.839 229.676 L 163.839 224.406 C 163.839 220.086 163.739 219.586 159.469 219.586 L 159.469 215.826 L 176.329 215.826 L 176.329 219.586 C 172.059 219.586 171.959 220.036 171.959 224.406 L 171.959 239.356 C 171.959 243.676 172.059 244.176 176.329 244.176 L 176.329 247.936 L 159.469 247.936 L 159.469 244.176 C 163.739 244.176 163.839 243.726 163.839 239.356 L 163.839 234.236 L 152.249 234.236 L 152.249 239.356 C 152.249 243.676 152.299 244.176 156.619 244.176 L 156.619 247.936 L 139.709 247.936 Z" fill="currentColor" style="stroke-width: 1;"/>
  <path d="M 111.789 247.936 L 111.789 244.176 C 116.909 244.176 117.009 243.726 117.009 239.356 L 117.009 220.386 L 114.899 220.386 C 109.729 220.386 109.429 220.936 109.429 226.206 L 105.109 226.206 L 105.109 215.816 L 136.919 215.816 L 136.919 226.206 L 132.599 226.206 C 132.599 220.936 132.299 220.386 127.079 220.386 L 125.169 220.386 L 125.169 239.356 C 125.169 243.676 125.219 244.176 130.389 244.176 L 130.389 247.936 L 111.769 247.936 L 111.789 247.936 Z" fill="currentColor" style="stroke-width: 1;"/>
  <path d="M 104.409 247.936 L 77.919 247.936 L 77.919 244.176 C 82.239 244.176 82.289 243.726 82.289 239.356 L 82.289 224.406 C 82.289 220.086 82.239 219.586 77.919 219.586 L 77.919 215.826 L 94.829 215.826 L 94.829 219.586 C 90.509 219.586 90.459 220.036 90.459 224.406 L 90.459 243.376 L 93.769 243.376 C 99.739 243.376 99.939 242.776 99.939 236.856 L 104.409 236.856 L 104.409 247.946 L 104.409 247.936 Z" fill="currentColor" style="stroke-width: 1;"/>
  <path d="M 38.809 247.936 L 38.809 244.176 C 42.219 244.176 42.719 243.826 44.329 239.706 L 50.499 224.046 C 52.059 219.986 52.459 219.576 49.039 219.576 L 49.039 215.816 L 60.629 215.816 L 70.159 239.756 C 71.769 243.766 72.219 244.176 75.679 244.176 L 75.679 247.936 L 58.769 247.936 L 58.769 244.176 C 63.489 244.176 63.139 243.826 61.579 239.706 L 61.379 239.206 L 50.089 239.206 L 49.889 239.706 C 48.329 243.766 47.929 244.176 52.699 244.176 L 52.699 247.936 L 38.799 247.936 L 38.809 247.936 Z M 51.799 234.636 L 59.629 234.636 L 55.719 224.396 L 51.809 234.636 L 51.799 234.636 Z" fill="currentColor" style="stroke-width: 1;"/>
  <path d="M 36.139 247.936 L 7.639 247.936 L 7.639 244.176 C 11.959 244.176 12.009 243.726 12.009 239.356 L 12.009 224.406 C 12.009 220.086 11.959 219.586 7.639 219.586 L 7.639 215.826 L 35.639 215.826 L 35.639 225.406 L 31.729 225.406 C 31.729 220.886 31.529 220.386 25.009 220.386 L 20.189 220.386 L 20.189 229.166 L 22.799 229.166 C 25.409 229.166 25.559 228.666 25.559 225.556 L 29.519 225.556 L 29.519 237.096 L 25.559 237.096 C 25.559 234.186 25.409 233.736 22.799 233.736 L 20.189 233.736 L 20.189 243.366 L 25.509 243.366 C 32.029 243.366 32.229 242.766 32.229 237.546 L 36.139 237.546 L 36.139 247.936 Z" fill="currentColor" style="stroke-width: 1;"/>
  <path d="M -31.361 247.936 L -31.361 244.176 C -27.041 244.176 -26.991 243.726 -26.991 239.356 L -26.991 224.406 C -26.991 220.086 -27.041 219.586 -31.361 219.586 L -31.361 215.826 L -14.451 215.826 L -14.451 219.586 C -18.771 219.586 -18.821 220.036 -18.821 224.406 L -18.821 229.676 L -7.231 229.676 L -7.231 224.406 C -7.231 220.086 -7.331 219.586 -11.601 219.586 L -11.601 215.826 L 5.259 215.826 L 5.259 219.586 C 0.989 219.586 0.889 220.036 0.889 224.406 L 0.889 239.356 C 0.889 243.676 0.989 244.176 5.259 244.176 L 5.259 247.936 L -11.601 247.936 L -11.601 244.176 C -7.331 244.176 -7.231 243.726 -7.231 239.356 L -7.231 234.236 L -18.821 234.236 L -18.821 239.356 C -18.821 243.676 -18.771 244.176 -14.451 244.176 L -14.451 247.936 L -31.361 247.936 Z" fill="currentColor" style="stroke-width: 1;"/>
  <path d="M -50.161 248.586 C -63.561 248.586 -53.771 233.936 -61.851 233.936 L -65.511 233.936 L -65.511 239.356 C -65.511 243.676 -65.461 244.176 -61.901 244.176 L -61.901 247.936 L -78.06 247.936 L -78.06 244.176 C -73.74 244.176 -73.69 243.726 -73.69 239.356 L -73.69 224.406 C -73.69 220.086 -73.74 219.586 -78.06 219.586 L -78.06 215.826 L -59.741 215.826 C -51.711 215.826 -47.401 219.036 -47.401 224.406 C -47.401 228.926 -50.661 230.976 -54.171 231.586 C -47.551 233.896 -51.561 244.286 -48.551 244.286 C -47.351 244.286 -47.141 242.476 -47.401 239.816 L -43.441 239.816 C -42.741 245.386 -44.641 248.596 -50.161 248.596 L -50.161 248.586 Z M -65.521 229.566 L -60.901 229.566 C -58.191 229.566 -56.081 228.516 -56.081 224.646 C -56.081 221.436 -58.191 220.376 -60.901 220.376 L -65.521 220.376 L -65.521 229.556 L -65.521 229.566 Z" fill="currentColor" style="stroke-width: 1;"/>
  <path d="M -97.64 248.786 C -107.93 248.786 -115.15 241.816 -115.15 231.976 C -115.15 222.136 -107.97 214.966 -97.69 214.966 C -87.41 214.966 -80.18 221.936 -80.18 231.926 C -80.18 241.916 -87.41 248.786 -97.64 248.786 Z M -97.69 243.366 C -92.22 243.366 -89.21 239.356 -89.21 231.826 C -89.21 224.296 -92.22 220.386 -97.69 220.386 C -103.16 220.386 -106.12 224.346 -106.12 231.826 C -106.12 239.306 -103.16 243.366 -97.69 243.366 Z" fill="currentColor" style="stroke-width: 1;"/>
  <path d="M -146.23 247.936 L -146.23 244.176 C -141.91 244.176 -141.86 243.726 -141.86 239.356 L -141.86 224.406 C -141.86 220.086 -141.91 219.586 -146.23 219.586 L -146.23 215.826 L -118.23 215.826 L -118.23 225.406 L -122.14 225.406 C -122.14 220.886 -122.34 220.386 -128.86 220.386 L -133.68 220.386 L -133.68 230.116 L -130.97 230.116 C -128.36 230.116 -128.21 229.566 -128.21 226.456 L -124.3 226.456 L -124.3 238.046 L -128.21 238.046 C -128.21 235.086 -128.36 234.636 -130.97 234.636 L -133.68 234.636 L -133.68 239.356 C -133.68 243.676 -133.63 244.176 -128.46 244.176 L -128.46 247.936 L -146.22 247.936 L -146.23 247.936 Z" fill="currentColor" style="stroke-width: 1;"/>
  <path d="M 434.299 197.756 L 405.799 197.756 L 405.799 193.996 C 410.119 193.996 410.169 193.546 410.169 189.176 L 410.169 174.226 C 410.169 169.906 410.119 169.406 405.799 169.406 L 405.799 165.646 L 433.799 165.646 L 433.799 175.226 L 429.889 175.226 C 429.889 170.706 429.689 170.206 423.169 170.206 L 418.349 170.206 L 418.349 178.986 L 420.959 178.986 C 423.569 178.986 423.719 178.486 423.719 175.376 L 427.679 175.376 L 427.679 186.916 L 423.719 186.916 C 423.719 184.006 423.569 183.556 420.959 183.556 L 418.349 183.556 L 418.349 193.186 L 423.669 193.186 C 430.189 193.186 430.389 192.586 430.389 187.366 L 434.299 187.366 L 434.299 197.756 Z" fill="currentColor" style="stroke-width: 1;"/>
  <path d="M 397.179 198.406 C 383.779 198.406 393.569 183.756 385.489 183.756 L 381.829 183.756 L 381.829 189.176 C 381.829 193.496 381.879 193.996 385.439 193.996 L 385.439 197.756 L 369.279 197.756 L 369.279 193.996 C 373.599 193.996 373.649 193.546 373.649 189.176 L 373.649 174.226 C 373.649 169.906 373.599 169.406 369.279 169.406 L 369.279 165.646 L 387.599 165.646 C 395.629 165.646 399.939 168.856 399.939 174.226 C 399.939 178.746 396.679 180.796 393.169 181.406 C 399.789 183.716 395.779 194.106 398.789 194.106 C 399.989 194.106 400.199 192.296 399.939 189.636 L 403.899 189.636 C 404.599 195.206 402.699 198.416 397.179 198.416 L 397.179 198.406 Z M 381.829 179.386 L 386.449 179.386 C 389.159 179.386 391.269 178.336 391.269 174.466 C 391.269 171.256 389.159 170.196 386.449 170.196 L 381.829 170.196 L 381.829 179.376 L 381.829 179.386 Z" fill="currentColor" style="stroke-width: 1;"/>
  <path d="M 330.179 197.756 L 330.179 193.996 C 333.589 193.996 334.089 193.646 335.699 189.526 L 341.869 173.866 C 343.429 169.806 343.829 169.396 340.409 169.396 L 340.409 165.636 L 351.999 165.636 L 361.529 189.576 C 363.139 193.586 363.589 193.996 367.049 193.996 L 367.049 197.756 L 350.139 197.756 L 350.139 193.996 C 354.859 193.996 354.509 193.646 352.949 189.526 L 352.749 189.026 L 341.459 189.026 L 341.259 189.526 C 339.699 193.586 339.299 193.996 344.069 193.996 L 344.069 197.756 L 330.169 197.756 L 330.179 197.756 Z M 343.169 184.456 L 350.999 184.456 L 347.089 174.216 L 343.179 184.456 L 343.169 184.456 Z" fill="currentColor" style="stroke-width: 1;"/>
  <path d="M 305.969 173.966 C 304.669 169.856 304.259 169.396 301.099 169.396 L 301.099 165.636 L 316.859 165.636 L 316.859 169.396 C 312.489 169.396 312.749 169.796 313.849 174.016 L 318.269 190.226 L 323.539 173.966 C 324.889 169.856 325.249 169.396 320.779 169.396 L 320.779 165.636 L 334.629 165.636 L 334.629 169.396 C 331.169 169.396 330.769 169.796 329.309 173.916 L 321.129 197.756 L 313.299 197.756 L 309.439 185.266 L 304.319 197.756 L 296.489 197.756 L 288.109 173.916 C 286.699 169.806 286.249 169.396 282.789 169.396 L 282.789 165.636 L 298.599 165.636 L 298.599 169.396 C 294.589 169.396 294.889 169.796 296.289 173.916 L 301.909 190.426 L 307.179 177.886 L 305.979 173.976 L 305.969 173.966 Z" fill="currentColor" style="stroke-width: 1;"/>
  <path d="M 255.029 197.756 L 255.029 193.996 C 260.149 193.996 260.249 193.546 260.249 189.176 L 260.249 170.206 L 258.139 170.206 C 252.969 170.206 252.669 170.756 252.669 176.026 L 248.349 176.026 L 248.349 165.636 L 280.159 165.636 L 280.159 176.026 L 275.839 176.026 C 275.839 170.756 275.539 170.206 270.319 170.206 L 268.409 170.206 L 268.409 189.176 C 268.409 193.496 268.459 193.996 273.629 193.996 L 273.629 197.756 L 255.009 197.756 L 255.029 197.756 Z" fill="currentColor" style="stroke-width: 1;"/>
  <path d="M 217.129 197.756 L 217.129 193.996 C 221.449 193.996 221.499 193.546 221.499 189.176 L 221.499 174.226 C 221.499 169.906 221.449 169.406 217.129 169.406 L 217.129 165.646 L 245.129 165.646 L 245.129 175.226 L 241.219 175.226 C 241.219 170.706 241.019 170.206 234.499 170.206 L 229.679 170.206 L 229.679 179.936 L 232.389 179.936 C 234.999 179.936 235.149 179.386 235.149 176.276 L 239.059 176.276 L 239.059 187.866 L 235.149 187.866 C 235.149 184.906 234.999 184.456 232.389 184.456 L 229.679 184.456 L 229.679 189.176 C 229.679 193.496 229.729 193.996 234.899 193.996 L 234.899 197.756 L 217.139 197.756 L 217.129 197.756 Z" fill="currentColor" style="stroke-width: 1;"/>
  <path d="M 197.549 198.606 C 187.259 198.606 180.039 191.636 180.039 181.796 C 180.039 171.956 187.219 164.786 197.499 164.786 C 207.779 164.786 215.009 171.756 215.009 181.746 C 215.009 191.736 207.779 198.606 197.549 198.606 Z M 197.499 193.186 C 202.969 193.186 205.979 189.176 205.979 181.646 C 205.979 174.116 202.969 170.206 197.499 170.206 C 192.029 170.206 189.069 174.166 189.069 181.646 C 189.069 189.126 192.029 193.186 197.499 193.186 Z" fill="currentColor" style="stroke-width: 1;"/>
  <path d="M 165.659 198.406 C 158.989 198.406 156.379 194.796 155.219 194.796 C 154.869 194.796 154.719 195.046 154.719 195.696 L 154.719 197.756 L 150.349 197.756 L 150.349 186.916 L 154.719 186.916 C 155.819 189.776 159.739 193.436 164.399 193.436 C 167.009 193.436 168.409 192.336 168.409 190.426 C 168.409 183.606 150.189 186.716 150.189 174.666 C 150.189 168.346 155.159 164.986 161.729 164.986 C 168.299 164.986 170.259 168.396 171.359 168.396 C 171.709 168.396 171.859 168.146 171.859 167.396 L 171.859 165.636 L 176.179 165.636 L 176.179 176.876 L 171.759 176.876 C 170.909 173.266 167.439 170.006 163.129 170.006 C 160.369 170.006 158.659 171.156 158.659 173.016 C 158.659 178.836 176.929 176.126 176.929 188.526 C 176.929 194.446 173.119 198.416 165.639 198.416 L 165.659 198.406 Z" fill="currentColor" style="stroke-width: 1;"/>
  <path d="M 136.749 197.756 L 110.259 197.756 L 110.259 193.996 C 114.579 193.996 114.629 193.546 114.629 189.176 L 114.629 174.226 C 114.629 169.906 114.579 169.406 110.259 169.406 L 110.259 165.646 L 127.169 165.646 L 127.169 169.406 C 122.849 169.406 122.799 169.856 122.799 174.226 L 122.799 193.196 L 126.109 193.196 C 132.079 193.196 132.279 192.596 132.279 186.676 L 136.749 186.676 L 136.749 197.766 L 136.749 197.756 Z" fill="currentColor" style="stroke-width: 1;"/>
  <path d="M 71.149 197.756 L 71.149 193.996 C 74.559 193.996 75.059 193.646 76.669 189.526 L 82.839 173.866 C 84.399 169.806 84.799 169.396 81.379 169.396 L 81.379 165.636 L 92.969 165.636 L 102.499 189.576 C 104.109 193.586 104.559 193.996 108.019 193.996 L 108.019 197.756 L 91.109 197.756 L 91.109 193.996 C 95.829 193.996 95.479 193.646 93.919 189.526 L 93.719 189.026 L 82.429 189.026 L 82.229 189.526 C 80.669 193.586 80.269 193.996 85.039 193.996 L 85.039 197.756 L 71.139 197.756 L 71.149 197.756 Z M 84.139 184.456 L 91.969 184.456 L 88.059 174.216 L 84.149 184.456 L 84.139 184.456 Z" fill="currentColor" style="stroke-width: 1;"/>
  <path d="M 52.039 197.756 L 52.039 193.996 C 56.359 193.996 56.409 193.546 56.409 189.176 L 56.409 174.226 C 56.409 169.906 56.359 169.406 52.039 169.406 L 52.039 165.646 L 68.949 165.646 L 68.949 169.406 C 64.629 169.406 64.579 169.856 64.579 174.226 L 64.579 189.176 C 64.579 193.496 64.629 193.996 68.949 193.996 L 68.949 197.756 L 52.039 197.756 Z" fill="currentColor" style="stroke-width: 1;"/>
  <path d="M 33.759 198.606 C 23.819 198.606 17.349 191.786 17.349 181.896 C 17.349 172.006 24.119 164.786 32.909 164.786 C 39.829 164.786 42.439 168.696 43.649 168.696 C 43.999 168.696 44.149 168.446 44.149 167.746 L 44.149 165.636 L 48.469 165.636 L 48.469 178.686 L 43.699 178.686 C 42.749 173.666 39.889 170.356 34.969 170.356 C 30.049 170.356 26.389 174.266 26.389 181.596 C 26.389 188.926 29.999 192.786 35.069 192.786 C 39.229 192.786 42.149 190.126 43.299 185.916 L 48.719 185.916 C 47.569 193.446 42.399 198.616 33.769 198.616 L 33.759 198.606 Z" fill="currentColor" style="stroke-width: 1;"/>
  <path d="M 5.359 197.756 L -10.801 177.386 L -10.801 189.176 C -10.801 193.496 -10.701 193.996 -6.431 193.996 L -6.431 197.756 L -20.581 197.756 L -20.581 193.996 C -16.261 193.996 -16.211 193.546 -16.211 189.176 L -16.211 174.226 C -16.211 169.906 -16.261 169.406 -20.581 169.406 L -20.581 165.646 L -10.091 165.646 L 5.869 186.266 L 5.869 174.226 C 5.869 169.906 5.819 169.406 1.499 169.406 L 1.499 165.646 L 15.649 165.646 L 15.649 169.406 C 11.329 169.406 11.279 169.856 11.279 174.226 L 11.279 197.756 L 5.359 197.756 Z" fill="currentColor" style="stroke-width: 1;"/>
  <path d="M -59.691 197.756 L -59.691 193.996 C -56.281 193.996 -55.781 193.646 -54.171 189.526 L -48.001 173.866 C -46.441 169.806 -46.041 169.396 -49.461 169.396 L -49.461 165.636 L -37.871 165.636 L -28.341 189.576 C -26.731 193.586 -26.281 193.996 -22.821 193.996 L -22.821 197.756 L -39.731 197.756 L -39.731 193.996 C -35.011 193.996 -35.361 193.646 -36.921 189.526 L -37.121 189.026 L -48.411 189.026 L -48.611 189.526 C -50.171 193.586 -50.571 193.996 -45.801 193.996 L -45.801 197.756 L -59.701 197.756 L -59.691 197.756 Z M -46.691 184.456 L -38.861 184.456 L -42.771 174.216 L -46.681 184.456 L -46.691 184.456 Z" fill="currentColor" style="stroke-width: 1;"/>
  <path d="M -70.301 197.756 L -86.46 177.386 L -86.46 189.176 C -86.46 193.496 -86.36 193.996 -82.09 193.996 L -82.09 197.756 L -96.24 197.756 L -96.24 193.996 C -91.92 193.996 -91.87 193.546 -91.87 189.176 L -91.87 174.226 C -91.87 169.906 -91.92 169.406 -96.24 169.406 L -96.24 165.646 L -85.75 165.646 L -69.791 186.266 L -69.791 174.226 C -69.791 169.906 -69.841 169.406 -74.16 169.406 L -74.16 165.646 L -60.011 165.646 L -60.011 169.406 C -64.331 169.406 -64.381 169.856 -64.381 174.226 L -64.381 197.756 L -70.301 197.756 Z" fill="currentColor" style="stroke-width: 1;"/>
  <path d="M -115.45 197.756 L -115.45 193.996 C -111.13 193.996 -111.08 193.546 -111.08 189.176 L -111.08 174.226 C -111.08 169.906 -111.13 169.406 -115.45 169.406 L -115.45 165.646 L -98.54 165.646 L -98.54 169.406 C -102.86 169.406 -102.91 169.856 -102.91 174.226 L -102.91 189.176 C -102.91 193.496 -102.86 193.996 -98.54 193.996 L -98.54 197.756 L -115.45 197.756 Z" fill="currentColor" style="stroke-width: 1;"/>
  <path d="M -146.23 197.756 L -146.23 193.996 C -141.91 193.996 -141.86 193.546 -141.86 189.176 L -141.86 174.226 C -141.86 169.906 -141.91 169.406 -146.23 169.406 L -146.23 165.646 L -118.23 165.646 L -118.23 175.226 L -122.14 175.226 C -122.14 170.706 -122.34 170.206 -128.86 170.206 L -133.68 170.206 L -133.68 179.936 L -130.97 179.936 C -128.36 179.936 -128.21 179.386 -128.21 176.276 L -124.3 176.276 L -124.3 187.866 L -128.21 187.866 C -128.21 184.906 -128.36 184.456 -130.97 184.456 L -133.68 184.456 L -133.68 189.176 C -133.68 193.496 -133.63 193.996 -128.46 193.996 L -128.46 197.756 L -146.22 197.756 L -146.23 197.756 Z" fill="currentColor" style="stroke-width: 1;"/>
</svg>